<?xml version="1.0" standalone="no"?>
<!DOCTYPE svg PUBLIC "-//W3C//DTD SVG 20010904//EN"
 "http://www.w3.org/TR/2001/REC-SVG-20010904/DTD/svg10.dtd">
<svg version="1.0" xmlns="http://www.w3.org/2000/svg"
 width="476.000000pt" height="337.000000pt" viewBox="0 0 476.000000 337.000000"
 preserveAspectRatio="xMidYMid meet">
<metadata>
Created by potrace 1.16, written by Peter Selinger 2001-2019
</metadata>
<g transform="translate(0.000000,337.000000) scale(0.100000,-0.100000)"
fill="#000000" stroke="none">
<path d="M1909 3115 c-244 -118 -505 -245 -579 -282 l-135 -68 -3 -227 -2
-228 -33 -14 c-90 -37 -124 -156 -67 -229 18 -23 18 -27 -5 -173 -14 -82 -25
-157 -25 -167 0 -10 13 -32 29 -48 28 -28 33 -29 123 -29 159 0 168 17 133
236 -25 153 -25 156 -6 180 58 74 20 198 -71 233 l-28 11 0 175 c0 96 3 175 8
175 4 0 126 -47 272 -104 l265 -103 -4 -127 -3 -127 -49 -92 c-244 -465 34
-1016 554 -1095 41 -7 62 -6 74 3 24 18 9 43 -28 47 -30 3 -36 10 -67 72 -33
67 -94 240 -107 303 l-6 33 183 2 c170 3 183 4 186 22 2 10 -2 22 -10 27 -7 5
-93 9 -190 9 l-177 0 -8 38 c-10 50 -10 305 0 365 l8 47 244 0 c184 0 246 -3
252 -12 6 -10 12 -198 13 -381 0 -5 10 -7 23 -5 19 3 23 11 30 73 7 67 2 224
-10 293 l-5 32 178 -2 179 -3 15 -60 c12 -49 19 -61 38 -63 19 -3 22 1 22 31
0 49 -42 167 -87 246 l-38 66 0 124 0 123 285 104 c157 57 291 112 298 121 15
21 15 45 0 65 -21 27 -1163 598 -1196 598 -16 0 -213 -90 -473 -215z m1060
-129 c310 -155 560 -285 555 -289 -9 -5 -531 -197 -538 -197 -1 0 -6 59 -9
131 -9 187 -16 194 -207 225 -163 27 -593 27 -760 0 -63 -10 -130 -25 -149
-34 -42 -20 -61 -62 -62 -144 -1 -35 -4 -86 -7 -114 l-7 -52 -265 103 c-145
57 -266 107 -267 112 -4 12 1098 542 1127 542 14 0 279 -127 589 -283z m-379
-166 c180 -16 292 -37 311 -59 12 -15 17 -54 23 -173 3 -84 9 -197 13 -250 l6
-98 -556 0 -556 0 5 68 c2 37 9 148 14 247 5 99 12 188 15 197 9 22 49 33 195
52 198 27 354 31 530 16z m-1309 -599 c38 -38 39 -87 4 -129 l-25 -30 26 -161
c14 -89 23 -169 20 -176 -8 -23 -174 -21 -183 1 -3 9 5 87 19 173 l26 156 -24
36 c-33 49 -31 93 5 130 22 21 39 29 66 29 27 0 44 -8 66 -29z m831 -103 c-8
-35 -16 -69 -18 -75 -5 -19 -334 -18 -334 0 0 8 18 42 40 75 l40 62 143 0 144
0 -15 -62z m492 -3 c9 -35 16 -69 16 -75 0 -7 -78 -10 -235 -10 -129 0 -235 3
-235 6 0 3 7 37 17 75 l16 69 202 0 203 0 16 -65z m374 -4 c23 -37 42 -71 42
-75 0 -3 -76 -6 -169 -6 l-168 0 -17 68 c-9 37 -16 70 -16 75 0 4 64 7 143 7
l142 0 43 -69z m-903 -356 l0 -225 -172 0 -172 0 -15 53 c-30 109 -28 263 5
365 l11 32 171 0 172 0 0 -225z m40 -382 c20 -76 46 -150 102 -282 7 -15 -4
-13 -93 21 -116 43 -256 160 -321 269 -58 97 -68 90 122 87 l167 -3 23 -92z"/>
<path d="M840 2628 c-30 -15 -53 -37 -67 -63 l-23 -40 0 -1015 c0 -1001 0
-1015 20 -1048 39 -63 28 -62 685 -62 327 0 595 -3 595 -7 0 -5 -30 -74 -67
-155 l-67 -148 -180 -2 -181 -3 0 -25 0 -25 711 -3 c624 -2 713 0 724 13 21
25 -5 45 -60 45 l-48 0 -23 55 c-26 60 -47 75 -66 49 -10 -13 -8 -24 7 -55 11
-21 20 -41 20 -44 0 -3 -189 -5 -420 -5 -231 0 -420 1 -420 3 0 2 31 71 68
153 l69 149 244 5 c134 3 245 7 247 8 2 1 2 12 0 24 l-3 23 -881 5 c-726 4
-884 7 -897 19 -14 11 -17 33 -17 117 l0 104 808 0 c444 0 813 4 820 9 8 5 12
17 10 27 -3 18 -30 19 -821 22 l-817 2 0 885 0 884 24 28 c24 27 27 28 152 33
116 4 129 7 132 24 6 30 -16 36 -128 36 -90 0 -112 -3 -150 -22z"/>
<path d="M3640 2635 c-10 -12 -10 -18 0 -30 10 -12 40 -15 149 -15 129 0 138
-1 166 -24 l30 -24 5 -549 5 -548 25 0 25 0 3 535 2 535 -22 45 c-37 73 -82
90 -244 90 -105 0 -134 -3 -144 -15z"/>
<path d="M3200 1823 c-46 -17 -764 -470 -777 -490 -13 -20 -15 -42 -10 -129
13 -204 66 -397 158 -574 117 -224 308 -420 535 -548 104 -59 123 -61 219 -14
267 130 509 401 624 697 79 205 123 493 86 564 -10 21 -113 90 -387 259 -353
217 -412 248 -448 235z m360 -247 c173 -107 341 -211 373 -230 l57 -36 0 -73
c0 -224 -87 -495 -227 -706 -101 -151 -311 -339 -470 -420 -59 -29 -78 -27
-163 22 -112 64 -185 120 -285 221 -147 147 -250 317 -313 516 -54 171 -83
415 -52 444 28 26 734 456 750 456 8 0 157 -87 330 -194z"/>
<path d="M3200 1597 c-26 -14 -316 -196 -465 -292 -46 -30 -89 -64 -96 -77
-16 -30 -5 -192 20 -290 49 -188 128 -334 256 -467 88 -92 169 -154 258 -197
l57 -28 63 31 c123 61 277 200 360 325 98 149 163 341 174 518 5 91 5 97 -18
122 -25 26 -531 351 -565 362 -10 3 -30 0 -44 -7z m300 -216 c140 -89 260
-169 266 -179 17 -25 0 -180 -31 -286 -50 -172 -112 -281 -234 -409 -74 -77
-237 -197 -269 -197 -25 0 -141 73 -205 129 -206 180 -314 400 -342 692 -5 53
-3 68 10 79 42 35 531 339 540 336 6 -2 125 -76 265 -165z"/>
<path d="M4002 718 c-8 -8 -12 -48 -12 -119 0 -100 -2 -109 -22 -123 -12 -9
-41 -16 -64 -16 -25 0 -47 -6 -54 -15 -33 -39 54 -60 125 -31 19 8 44 30 55
48 18 29 20 47 18 148 -3 93 -6 115 -18 118 -9 1 -21 -3 -28 -10z"/>
</g>
</svg>
